<svg width="327" height="45" viewBox="0 0 327 45" fill="none" xmlns="http://www.w3.org/2000/svg">
<g clip-path="url(#clip0)">
<path d="M32.4075 39.1599L31.05 37.4631C30.8804 33.221 30.7531 29.078 30.6683 25.0339C30.6117 20.9898 30.5127 16.8467 30.3713 12.6047L31.6439 11.0776C32.153 11.021 32.6479 10.9786 33.1286 10.9503C33.6377 10.922 34.1326 10.9079 34.6134 10.9079C36.593 10.9079 38.4029 11.1624 40.0432 11.6715C41.7117 12.1805 43.1399 12.9865 44.3276 14.0894C45.5154 15.1923 46.4345 16.6064 47.085 18.3315C47.7637 20.0566 48.103 22.121 48.103 24.5248C48.103 26.6741 47.7071 28.6538 46.9153 30.4637C46.1517 32.2453 45.0912 33.7866 43.7337 35.0875C42.3763 36.3601 40.7785 37.3641 38.9402 38.0994C37.1303 38.8064 35.179 39.1599 33.0862 39.1599H32.4075ZM33.0014 13.7076L33.8498 36.3601C35.49 36.1904 37.0172 35.7945 38.4312 35.1724C39.8452 34.5219 41.0613 33.6876 42.0793 32.6696C43.1257 31.6515 43.9317 30.4637 44.4973 29.1062C45.0912 27.7205 45.3881 26.2217 45.3881 24.6097C45.3881 22.8846 45.176 21.3433 44.7518 19.9859C44.3559 18.6284 43.7055 17.483 42.8005 16.5498C41.9238 15.6166 40.7785 14.9095 39.3644 14.4288C37.9504 13.9197 36.2536 13.6652 34.274 13.6652C34.076 13.6652 33.8639 13.6794 33.6377 13.7076C33.4397 13.7076 33.2276 13.7076 33.0014 13.7076ZM69.1436 35.2572V38.2266H53.0238L51.4967 36.1904V13.7925L53.1935 11.3321H66.8529V13.7925H54.4661V23.2946H67.7013V25.5853H54.2964V35.2572H69.1436ZM78.3064 34.833L90.0144 10.1443L92.4748 11.5866L79.3245 38.9054L75.846 38.4811L71.6039 10.7382H74.4885L78.3064 34.833ZM95.3594 38.9902V12.1805V10.4837C95.8967 10.4271 96.4057 10.3847 96.8865 10.3564C97.3673 10.3281 97.8339 10.314 98.2864 10.314C100.181 10.314 101.708 10.5261 102.868 10.9503C104.056 11.3462 104.961 11.8411 105.583 12.435C106.205 13.0289 106.615 13.6511 106.813 14.3015C107.039 14.9237 107.152 15.461 107.152 15.9135C107.152 17.3558 106.799 18.6284 106.092 19.7313C105.413 20.8343 104.381 21.5978 102.995 22.022C107.237 22.022 110.362 22.7432 112.37 24.1855C114.406 25.6278 115.424 27.5791 115.424 30.0395C115.424 32.9524 114.067 35.2006 111.352 36.7843C108.637 38.3397 104.522 39.1175 99.0075 39.1175C97.848 39.1175 96.632 39.075 95.3594 38.9902ZM96.7168 12.9441L97.3107 21.8524C99.4317 21.6544 101.143 21.0746 102.444 20.1131C103.773 19.1516 104.437 17.8648 104.437 16.2529C104.437 15.2065 103.957 14.3722 102.995 13.7501C102.034 13.1279 100.605 12.8168 98.7106 12.8168C98.0884 12.8168 97.4238 12.8592 96.7168 12.9441ZM97.3955 24.6521L98.0743 35.9359C98.6399 35.9925 99.1772 36.0349 99.6862 36.0632C100.224 36.0915 100.747 36.1056 101.256 36.1056C102.839 36.1056 104.324 35.9783 105.71 35.7238C107.096 35.441 108.298 35.031 109.316 34.4936C110.334 33.9563 111.126 33.3059 111.691 32.5423C112.285 31.7787 112.582 30.902 112.582 29.9122C112.582 29.0355 112.257 28.2578 111.606 27.5791C110.984 26.8721 110.15 26.2782 109.104 25.7974C108.057 25.3167 106.841 24.9632 105.455 24.7369C104.098 24.4824 102.698 24.3552 101.256 24.3552C100.605 24.3552 99.9549 24.3834 99.3045 24.44C98.654 24.4966 98.0177 24.5673 97.3955 24.6521ZM134.047 23.9734C133.792 22.5594 133.453 21.2302 133.029 19.9859C132.604 18.7415 132.081 17.6669 131.459 16.7619C130.865 15.8287 130.172 15.0934 129.381 14.556C128.589 14.0187 127.698 13.7501 126.708 13.7501C125.605 13.7501 124.658 14.0187 123.866 14.556C123.074 15.0651 122.409 15.7438 121.872 16.5922C121.363 17.4406 120.981 18.4022 120.727 19.4768C120.472 20.5515 120.345 21.6544 120.345 22.7856C120.345 24.1148 120.486 25.5429 120.769 27.0701C121.052 28.5972 121.49 30.0112 122.084 31.3121C122.678 32.5847 123.428 33.6452 124.332 34.4936C125.266 35.342 126.355 35.7662 127.599 35.7662C128.815 35.7662 129.847 35.4976 130.696 34.9603C131.544 34.3946 132.223 33.6735 132.732 32.7968C133.269 31.8918 133.651 30.8879 133.877 29.785C134.103 28.682 134.216 27.5932 134.216 26.5186C134.216 26.0944 134.202 25.6702 134.174 25.246C134.146 24.7935 134.103 24.3693 134.047 23.9734ZM136.847 23.634C136.903 24.0865 136.945 24.539 136.974 24.9915C137.002 25.4157 137.016 25.854 137.016 26.3065C137.016 27.8053 136.832 29.3042 136.465 30.8031C136.097 32.2736 135.546 33.6028 134.81 34.7906C134.075 35.9783 133.142 36.9399 132.011 37.6752C130.879 38.4104 129.55 38.7781 128.023 38.7781C126.637 38.7781 125.308 38.4246 124.036 37.7176C122.763 36.9823 121.632 35.9501 120.642 34.6209C119.68 33.2634 118.903 31.6373 118.309 29.7425C117.743 27.8478 117.46 25.7126 117.46 23.3371C117.46 21.7817 117.644 20.2687 118.012 18.7981C118.38 17.3275 118.945 16.0125 119.709 14.853C120.472 13.6935 121.434 12.7602 122.593 12.0532C123.753 11.3462 125.124 10.9927 126.708 10.9927C128.32 10.9927 129.72 11.4028 130.908 12.2229C132.095 13.0148 133.099 14.0329 133.92 15.2772C134.74 16.5215 135.39 17.8931 135.871 19.392C136.352 20.8625 136.677 22.2766 136.847 23.634ZM155.851 23.9734C155.596 22.5594 155.257 21.2302 154.833 19.9859C154.409 18.7415 153.885 17.6669 153.263 16.7619C152.669 15.8287 151.976 15.0934 151.185 14.556C150.393 14.0187 149.502 13.7501 148.512 13.7501C147.409 13.7501 146.462 14.0187 145.67 14.556C144.878 15.0651 144.214 15.7438 143.676 16.5922C143.167 17.4406 142.785 18.4022 142.531 19.4768C142.276 20.5515 142.149 21.6544 142.149 22.7856C142.149 24.1148 142.29 25.5429 142.573 27.0701C142.856 28.5972 143.294 30.0112 143.888 31.3121C144.482 32.5847 145.232 33.6452 146.137 34.4936C147.07 35.342 148.159 35.7662 149.403 35.7662C150.619 35.7662 151.651 35.4976 152.5 34.9603C153.348 34.3946 154.027 33.6735 154.536 32.7968C155.073 31.8918 155.455 30.8879 155.681 29.785C155.907 28.682 156.021 27.5932 156.021 26.5186C156.021 26.0944 156.006 25.6702 155.978 25.246C155.95 24.7935 155.907 24.3693 155.851 23.9734ZM158.651 23.634C158.707 24.0865 158.75 24.539 158.778 24.9915C158.806 25.4157 158.82 25.854 158.82 26.3065C158.82 27.8053 158.636 29.3042 158.269 30.8031C157.901 32.2736 157.35 33.6028 156.614 34.7906C155.879 35.9783 154.946 36.9399 153.815 37.6752C152.683 38.4104 151.354 38.7781 149.827 38.7781C148.441 38.7781 147.112 38.4246 145.84 37.7176C144.567 36.9823 143.436 35.9501 142.446 34.6209C141.484 33.2634 140.707 31.6373 140.113 29.7425C139.547 27.8478 139.264 25.7126 139.264 23.3371C139.264 21.7817 139.448 20.2687 139.816 18.7981C140.184 17.3275 140.749 16.0125 141.513 14.853C142.276 13.6935 143.238 12.7602 144.397 12.0532C145.557 11.3462 146.928 10.9927 148.512 10.9927C150.124 10.9927 151.524 11.4028 152.712 12.2229C153.9 13.0148 154.903 14.0329 155.724 15.2772C156.544 16.5215 157.194 17.8931 157.675 19.392C158.156 20.8625 158.481 22.2766 158.651 23.634ZM162.129 38.8205V10.7382H165.014V21.8524L175.788 10.823L177.655 13.0289L166.88 23.5492L178.928 36.5298L176.891 38.1418L165.098 25.6702V38.8205H162.129ZM196.574 12.6047L195.387 15.1499C195.245 14.9802 194.977 14.7964 194.581 14.5985C194.185 14.3722 193.704 14.1743 193.138 14.0046C192.601 13.8349 192.007 13.6935 191.357 13.5804C190.706 13.439 190.07 13.3683 189.448 13.3683C188.826 13.3683 188.232 13.439 187.666 13.5804C187.129 13.6935 186.648 13.8915 186.224 14.1743C185.8 14.4571 185.46 14.8388 185.206 15.3196C184.98 15.8004 184.866 16.3801 184.866 17.0588C184.866 17.9638 185.206 18.8688 185.885 19.7738C186.592 20.6504 187.666 21.3433 189.108 21.8524C190.975 22.5876 192.431 23.3653 193.478 24.1855C194.552 25.0056 195.344 25.8257 195.853 26.6459C196.391 27.466 196.73 28.272 196.871 29.0638C197.013 29.8557 197.083 30.591 197.083 31.2697C196.999 33.6169 196.249 35.441 194.835 36.7419C193.421 38.0428 191.328 38.6932 188.557 38.6932C187.426 38.6932 186.181 38.566 184.824 38.3115C183.495 38.0852 182.038 37.7176 180.455 37.2085L181.388 34.2391C182.265 34.5785 183.353 34.9037 184.654 35.2148C185.983 35.4976 187.299 35.639 188.599 35.639C189.363 35.639 190.084 35.5683 190.763 35.4269C191.442 35.2855 192.035 35.0592 192.545 34.7482C193.054 34.4088 193.449 33.9704 193.732 33.4331C194.043 32.8958 194.199 32.2312 194.199 31.4394C194.171 30.0819 193.845 28.9931 193.223 28.173C192.629 27.3529 191.88 26.6741 190.975 26.1368C190.07 25.5995 189.094 25.1187 188.048 24.6945C187.002 24.2703 186.026 23.7613 185.121 23.1674C184.244 22.5735 183.509 21.8241 182.915 20.9191C182.321 20.0141 182.024 18.8122 182.024 17.3134C182.024 16.0973 182.208 15.0651 182.576 14.2167C182.943 13.3683 183.452 12.6895 184.103 12.1805C184.782 11.6432 185.559 11.2614 186.436 11.0351C187.341 10.7806 188.317 10.6534 189.363 10.6534C190.72 10.6534 192.035 10.8372 193.308 11.2048C194.581 11.5442 195.669 12.0108 196.574 12.6047Z" fill="white"/>
</g>
<path d="M265.714 14.2158L266.438 13.0219C266.438 13.0219 267.075 11.9658 267.075 10.5476C267.075 7.11211 263.797 7.20281 263.797 7.20281L256.655 5.25867L252.759 1.40625L247.633 2.80195L245.952 2.34422L244.674 3.60773L237.293 5.61727C237.293 5.61727 234.453 5.53922 234.453 8.51625C234.453 9.74531 235.005 10.6608 235.005 10.6608L235.955 12.2287L235.121 13.0528L231 14.175C231 14.175 227.723 14.0843 227.723 17.5198C227.729 18.3202 227.916 19.1088 228.27 19.8267L226.998 21.0846L227.666 21.349C227.68 21.3848 227.686 21.4249 227.715 21.4537C229.005 22.7468 228.899 24.4835 228.715 25.4215L227.935 26.2027L233.842 29.0426L241.954 42.4336C243.255 44.4769 246.014 43.1986 246.014 43.1986L266.861 33.1748L266.081 32.3937C265.897 31.4557 265.791 29.719 267.081 28.4252C267.11 28.3964 267.116 28.3563 267.131 28.3212L267.798 28.0561L263.921 24.2241L268.372 22.0845L267.697 21.4073C267.537 20.5945 267.445 19.0891 268.564 17.9684C268.588 17.943 268.592 17.9093 268.606 17.8777L269.186 17.6477L265.714 14.2158V14.2158ZM261.717 8.00367L260.838 9.39445L258.564 7.14586L261.717 8.00367ZM253.138 5.02312L256.402 8.51273L244.598 12.7786L241.81 8.45016L253.138 5.02312V5.02312ZM236.662 13.3959L244.718 26.6927L229.371 20.6051L236.662 13.3959V13.3959ZM233.305 14.8493L232.359 15.7845L231.981 15.2044L233.305 14.8493ZM230.318 15.5763L231.199 16.9312L229.291 18.817C229.141 18.4008 229.062 17.9622 229.058 17.5198C229.058 16.2359 229.695 15.7472 230.318 15.5763V15.5763ZM229.216 26.0339L229.226 25.9931L246.908 33.7324L229.365 25.3695C229.381 25.2745 229.394 25.1698 229.407 25.0643L243.141 30.8159L229.455 24.4062C229.459 24.1132 229.438 23.8205 229.395 23.5308L242.106 28.7655L229.224 22.7812C229.141 22.5042 229.03 22.2364 228.893 21.9818L246.389 29.4525L246.787 30.1092C247.608 31.3987 249.096 31.1604 249.846 30.9368C250.883 31.4487 252.743 32.6327 252.266 34.3772C252.015 35.2997 251.464 35.7469 250.58 35.7469C249.685 35.7469 248.791 35.2786 248.782 35.2723L229.216 26.0339ZM246.826 35.2863L245.444 35.8587L244.27 34.0566L246.826 35.2863ZM241.473 39.0698L236.038 30.0987L241.44 32.6953L243.994 36.6272C242.964 37.0673 241.813 38.0721 241.473 39.0698V39.0698ZM265.402 30.503C265.359 30.7927 265.338 31.0854 265.342 31.3784L251.655 37.788L265.39 32.0365C265.403 32.1412 265.415 32.2467 265.432 32.3416L247.889 40.7053L265.57 32.966C265.574 32.9795 265.578 32.9931 265.581 33.0068L246.015 42.2437C246.006 42.2501 245.114 42.7184 244.217 42.7184C243.333 42.7184 242.781 42.2705 242.53 41.3487C241.885 38.9812 245.555 37.639 245.61 37.6186L248.827 36.2461C249.172 36.393 251.635 37.3598 252.842 35.4621L253.604 34.2063L265.904 28.954C265.767 29.2087 265.656 29.4765 265.573 29.7534L252.69 35.7377L265.402 30.503V30.503ZM265.426 27.5773L255.002 31.8973L257.895 27.1223L262.653 24.8351L265.426 27.5773V27.5773ZM267.109 19.7677C267.071 20.0188 267.054 20.2724 267.056 20.5263L255.196 26.081L267.098 21.0966C267.11 21.1873 267.12 21.2794 267.135 21.3609L251.93 28.6087L267.254 21.9016C267.258 21.9132 267.261 21.9249 267.263 21.9368L250.306 29.9433C250.298 29.9482 249.524 30.3546 248.748 30.3546C247.981 30.3546 247.504 29.9658 247.286 29.167C246.727 27.1153 249.908 25.9523 249.955 25.9348L267.543 18.4254C267.425 18.6462 267.329 18.8785 267.257 19.1187L256.091 24.3049L267.109 19.7677" fill="white"/>
<defs>
<clipPath id="clip0">
<rect width="326.842" height="42.6316" fill="white" transform="translate(0 1.1842)"/>
</clipPath>
</defs>
</svg>
